# xmcd
#
# Track frame offsets: 
#        150
#        21669
#        46824
#        60208
#        75788
#        90972
#        107042
#        126488
#
# Disc length: 2013 seconds
#
# Revision: 1
# Processed by: cddbd v1.5.2PL0 Copyright (c) Steve Scherf et al.
# Submitted via: ExactAudioCopy v0.99pb5
#
DISCID=5507db08
DTITLE=Jan Skrzek - Nikt nie zawróci kijem Wisly
DYEAR=2001
DGENRE=Blues
TTITLE0=Nikt nie zawróci kijem Wisly
TTITLE1=Blues o skrzynce pocztowej
TTITLE2=A gdy umarl wielki czlowiek
TTITLE3=Gwiazdo zblakanej duszy
TTITLE4=Po górze jest dolina
TTITLE5=Sztygar jest mi troche wstyd
TTITLE6=Song o Stryju Józefie
TTITLE7=Song dla matki
EXTD=
EXTT0=
EXTT1=
EXTT2=
EXTT3=
EXTT4=
EXTT5=
EXTT6=
EXTT7=
PLAYORDER=
